<svg id="visual" viewBox="0 0 1425 200" width="1425" height="200" xmlns="http://www.w3.org/2000/svg" xmlns:xlink="http://www.w3.org/1999/xlink" version="1.1"><rect x="0" y="0" width="1425" height="200" fill="#FA7268"></rect><path d="M0 40L13.2 39.8C26.3 39.7 52.7 39.3 79 35.8C105.3 32.3 131.7 25.7 158.2 24.3C184.7 23 211.3 27 237.8 29.8C264.3 32.7 290.7 34.3 317 36.7C343.3 39 369.7 42 396 40.5C422.3 39 448.7 33 475 32.3C501.3 31.7 527.7 36.3 554 38.3C580.3 40.3 606.7 39.7 633.2 40C659.7 40.3 686.3 41.7 712.8 42.8C739.3 44 765.7 45 792 43C818.3 41 844.7 36 871 35.8C897.3 35.7 923.7 40.3 950 41.5C976.3 42.7 1002.7 40.3 1029 39.5C1055.3 38.7 1081.7 39.3 1108.2 39.7C1134.7 40 1161.3 40 1187.8 38C1214.3 36 1240.7 32 1267 33C1293.3 34 1319.7 40 1346 41.8C1372.3 43.7 1398.7 41.3 1411.8 40.2L1425 39L1425 201L1411.8 201C1398.7 201 1372.3 201 1346 201C1319.7 201 1293.3 201 1267 201C1240.7 201 1214.3 201 1187.8 201C1161.3 201 1134.7 201 1108.2 201C1081.7 201 1055.3 201 1029 201C1002.7 201 976.3 201 950 201C923.7 201 897.3 201 871 201C844.7 201 818.3 201 792 201C765.7 201 739.3 201 712.8 201C686.3 201 659.7 201 633.2 201C606.7 201 580.3 201 554 201C527.7 201 501.3 201 475 201C448.7 201 422.3 201 396 201C369.7 201 343.3 201 317 201C290.7 201 264.3 201 237.8 201C211.3 201 184.7 201 158.2 201C131.7 201 105.3 201 79 201C52.7 201 26.3 201 13.2 201L0 201Z" fill="#fa7268"></path><path d="M0 69L13.2 67.8C26.3 66.7 52.7 64.3 79 65.7C105.3 67 131.7 72 158.2 72.8C184.7 73.7 211.3 70.3 237.8 69.5C264.3 68.7 290.7 70.3 317 68C343.3 65.7 369.7 59.3 396 58.3C422.3 57.3 448.7 61.7 475 62.7C501.3 63.7 527.7 61.3 554 62.3C580.3 63.3 606.7 67.7 633.2 67.3C659.7 67 686.3 62 712.8 60C739.3 58 765.7 59 792 61.5C818.3 64 844.7 68 871 68.7C897.3 69.3 923.7 66.7 950 64.7C976.3 62.7 1002.7 61.3 1029 59.8C1055.3 58.3 1081.7 56.7 1108.2 58.8C1134.7 61 1161.3 67 1187.8 69.2C1214.3 71.3 1240.7 69.7 1267 69.3C1293.3 69 1319.7 70 1346 68.7C1372.3 67.3 1398.7 63.7 1411.8 61.8L1425 60L1425 201L1411.8 201C1398.7 201 1372.3 201 1346 201C1319.7 201 1293.3 201 1267 201C1240.7 201 1214.3 201 1187.8 201C1161.3 201 1134.7 201 1108.2 201C1081.7 201 1055.3 201 1029 201C1002.7 201 976.3 201 950 201C923.7 201 897.3 201 871 201C844.7 201 818.3 201 792 201C765.7 201 739.3 201 712.8 201C686.3 201 659.7 201 633.2 201C606.7 201 580.3 201 554 201C527.7 201 501.3 201 475 201C448.7 201 422.3 201 396 201C369.7 201 343.3 201 317 201C290.7 201 264.3 201 237.8 201C211.3 201 184.7 201 158.2 201C131.7 201 105.3 201 79 201C52.7 201 26.3 201 13.2 201L0 201Z" fill="#fd8f7e"></path><path d="M0 89L13.2 91.5C26.3 94 52.7 99 79 100.5C105.3 102 131.7 100 158.2 99.2C184.7 98.3 211.3 98.7 237.8 100.2C264.3 101.7 290.7 104.3 317 104.5C343.3 104.7 369.7 102.3 396 99.8C422.3 97.3 448.7 94.7 475 92.5C501.3 90.3 527.7 88.7 554 90.5C580.3 92.3 606.7 97.7 633.2 99.3C659.7 101 686.3 99 712.8 96.2C739.3 93.3 765.7 89.7 792 89C818.3 88.3 844.7 90.7 871 93C897.3 95.3 923.7 97.7 950 100.5C976.3 103.3 1002.7 106.7 1029 107.3C1055.3 108 1081.7 106 1108.2 104.2C1134.7 102.3 1161.3 100.7 1187.8 101.2C1214.3 101.7 1240.7 104.3 1267 102.8C1293.3 101.3 1319.7 95.7 1346 94.5C1372.3 93.3 1398.7 96.7 1411.8 98.3L1425 100L1425 201L1411.8 201C1398.7 201 1372.3 201 1346 201C1319.7 201 1293.3 201 1267 201C1240.7 201 1214.3 201 1187.8 201C1161.3 201 1134.7 201 1108.2 201C1081.7 201 1055.3 201 1029 201C1002.7 201 976.3 201 950 201C923.7 201 897.3 201 871 201C844.7 201 818.3 201 792 201C765.7 201 739.3 201 712.8 201C686.3 201 659.7 201 633.2 201C606.7 201 580.3 201 554 201C527.7 201 501.3 201 475 201C448.7 201 422.3 201 396 201C369.7 201 343.3 201 317 201C290.7 201 264.3 201 237.8 201C211.3 201 184.7 201 158.2 201C131.7 201 105.3 201 79 201C52.7 201 26.3 201 13.2 201L0 201Z" fill="#ffaa97"></path><path d="M0 135L13.2 133.3C26.3 131.7 52.7 128.3 79 129.5C105.3 130.7 131.7 136.3 158.2 139.2C184.7 142 211.3 142 237.8 141.8C264.3 141.7 290.7 141.3 317 138C343.3 134.7 369.7 128.3 396 126.2C422.3 124 448.7 126 475 126.3C501.3 126.7 527.7 125.3 554 126.3C580.3 127.3 606.7 130.7 633.2 130.3C659.7 130 686.3 126 712.8 126.2C739.3 126.3 765.7 130.7 792 134.2C818.3 137.7 844.7 140.3 871 140.3C897.3 140.3 923.7 137.7 950 135C976.3 132.3 1002.7 129.7 1029 127.3C1055.3 125 1081.7 123 1108.2 123.8C1134.7 124.7 1161.3 128.3 1187.8 128C1214.3 127.7 1240.7 123.3 1267 123.8C1293.3 124.3 1319.7 129.7 1346 131.7C1372.3 133.7 1398.7 132.3 1411.8 131.7L1425 131L1425 201L1411.8 201C1398.7 201 1372.3 201 1346 201C1319.7 201 1293.3 201 1267 201C1240.7 201 1214.3 201 1187.8 201C1161.3 201 1134.7 201 1108.2 201C1081.7 201 1055.3 201 1029 201C1002.7 201 976.3 201 950 201C923.7 201 897.3 201 871 201C844.7 201 818.3 201 792 201C765.7 201 739.3 201 712.8 201C686.3 201 659.7 201 633.2 201C606.7 201 580.3 201 554 201C527.7 201 501.3 201 475 201C448.7 201 422.3 201 396 201C369.7 201 343.3 201 317 201C290.7 201 264.3 201 237.8 201C211.3 201 184.7 201 158.2 201C131.7 201 105.3 201 79 201C52.7 201 26.3 201 13.2 201L0 201Z" fill="#ffc4b3"></path><path d="M0 157L13.2 156.2C26.3 155.3 52.7 153.7 79 154.8C105.3 156 131.7 160 158.2 163.8C184.7 167.7 211.3 171.3 237.8 173.5C264.3 175.7 290.7 176.3 317 172.7C343.3 169 369.7 161 396 160.3C422.3 159.7 448.7 166.3 475 166.5C501.3 166.7 527.7 160.3 554 159.5C580.3 158.7 606.7 163.3 633.2 163.5C659.7 163.7 686.3 159.3 712.8 157.2C739.3 155 765.7 155 792 156.7C818.3 158.3 844.7 161.7 871 161.7C897.3 161.7 923.7 158.3 950 156.5C976.3 154.7 1002.7 154.3 1029 156.5C1055.3 158.7 1081.7 163.3 1108.2 167.3C1134.7 171.3 1161.3 174.7 1187.8 172.5C1214.3 170.3 1240.7 162.7 1267 160.2C1293.3 157.7 1319.7 160.3 1346 161.8C1372.3 163.3 1398.7 163.7 1411.8 163.8L1425 164L1425 201L1411.8 201C1398.7 201 1372.3 201 1346 201C1319.7 201 1293.3 201 1267 201C1240.7 201 1214.3 201 1187.8 201C1161.3 201 1134.7 201 1108.2 201C1081.7 201 1055.3 201 1029 201C1002.7 201 976.3 201 950 201C923.7 201 897.3 201 871 201C844.7 201 818.3 201 792 201C765.7 201 739.3 201 712.8 201C686.3 201 659.7 201 633.2 201C606.7 201 580.3 201 554 201C527.7 201 501.3 201 475 201C448.7 201 422.3 201 396 201C369.7 201 343.3 201 317 201C290.7 201 264.3 201 237.8 201C211.3 201 184.7 201 158.2 201C131.7 201 105.3 201 79 201C52.7 201 26.3 201 13.2 201L0 201Z" fill="#ffddd2"></path></svg>