<svg id="visual" viewBox="0 0 1425 170" width="1425" height="170" xmlns="http://www.w3.org/2000/svg" xmlns:xlink="http://www.w3.org/1999/xlink" version="1.1"><rect x="0" y="0" width="1425" height="170" fill="#ff937a"></rect><path d="M0 33L79.2 33C158.3 33 316.7 33 475 33C633.3 33 791.7 33 950 33C1108.3 33 1266.7 33 1345.8 33L1425 33L1425 171L1345.8 171C1266.7 171 1108.3 171 950 171C791.7 171 633.3 171 475 171C316.7 171 158.3 171 79.2 171L0 171Z" fill="#ff937a"></path><path d="M0 67L79.2 67C158.3 67 316.7 67 475 67C633.3 67 791.7 67 950 67C1108.3 67 1266.7 67 1345.8 67L1425 67L1425 171L1345.8 171C1266.7 171 1108.3 171 950 171C791.7 171 633.3 171 475 171C316.7 171 158.3 171 79.2 171L0 171Z" fill="#ffa893"></path><path d="M0 101L79.2 101C158.3 101 316.7 101 475 101C633.3 101 791.7 101 950 101C1108.3 101 1266.7 101 1345.8 101L1425 101L1425 171L1345.8 171C1266.7 171 1108.3 171 950 171C791.7 171 633.3 171 475 171C316.7 171 158.3 171 79.2 171L0 171Z" fill="#ffbcac"></path><path d="M0 135L79.2 135C158.3 135 316.7 135 475 135C633.3 135 791.7 135 950 135C1108.3 135 1266.7 135 1345.8 135L1425 135L1425 171L1345.8 171C1266.7 171 1108.3 171 950 171C791.7 171 633.3 171 475 171C316.7 171 158.3 171 79.2 171L0 171Z" fill="#ffd1c6"></path></svg>